<svg width="299" height="60" viewBox="0 0 299 60" fill="none" xmlns="http://www.w3.org/2000/svg">
<g clip-path="url(#clip0)">
<path d="M79.9 13.46V16.26H85.34V18.92H79.9V24H76.46V10.8H86.72V13.46H79.9ZM92.27 13.8C93.9367 13.8 95.23 14.26 96.15 15.18C97.0833 16.0867 97.55 17.36 97.55 19C97.55 20.64 97.0833 21.92 96.15 22.84C95.23 23.7467 93.9367 24.2 92.27 24.2C90.6033 24.2 89.3033 23.7467 88.37 22.84C87.45 21.92 86.99 20.64 86.99 19C86.99 17.36 87.45 16.0867 88.37 15.18C89.3033 14.26 90.6033 13.8 92.27 13.8ZM92.27 16.22C91.63 16.22 91.1567 16.44 90.85 16.88C90.5433 17.32 90.39 18.0267 90.39 19C90.39 19.9733 90.5433 20.68 90.85 21.12C91.1567 21.56 91.63 21.78 92.27 21.78C92.91 21.78 93.3833 21.56 93.69 21.12C93.9967 20.68 94.15 19.9733 94.15 19C94.15 18.0267 93.9967 17.32 93.69 16.88C93.3833 16.44 92.91 16.22 92.27 16.22ZM109.461 14V24H106.421L106.321 22.14C105.695 23.5133 104.541 24.2 102.861 24.2C101.795 24.2 100.955 23.92 100.341 23.36C99.7413 22.7867 99.4413 21.8933 99.4413 20.68V14H102.841V19.82C102.841 20.4733 102.955 20.9333 103.181 21.2C103.408 21.4667 103.755 21.6 104.221 21.6C104.781 21.6 105.228 21.4133 105.561 21.04C105.895 20.6533 106.061 20.0733 106.061 19.3V14H109.461ZM118.464 13.8C119.517 13.8 120.357 14.1067 120.984 14.72C121.61 15.3333 121.924 16.2067 121.924 17.34V24H118.524V18.28C118.524 17.6 118.397 17.12 118.144 16.84C117.904 16.5467 117.557 16.4 117.104 16.4C116.57 16.4 116.137 16.5933 115.804 16.98C115.47 17.3533 115.304 17.9333 115.304 18.72V24H111.904V14H114.944L115.044 15.92C115.364 15.2133 115.817 14.6867 116.404 14.34C116.99 13.98 117.677 13.8 118.464 13.8ZM134.446 9.76V24H131.386L131.266 22.1C130.973 22.7533 130.539 23.2667 129.966 23.64C129.406 24.0133 128.753 24.2 128.006 24.2C126.713 24.2 125.699 23.7467 124.966 22.84C124.246 21.9333 123.886 20.6667 123.886 19.04C123.886 17.3867 124.253 16.1 124.986 15.18C125.719 14.26 126.733 13.8 128.026 13.8C128.733 13.8 129.339 13.9667 129.846 14.3C130.353 14.6333 130.753 15.0933 131.046 15.68V9.76H134.446ZM129.186 21.7C129.733 21.7 130.166 21.5067 130.486 21.12C130.819 20.72 131.006 20.1467 131.046 19.4V18.6C131.006 17.8667 130.819 17.3 130.486 16.9C130.166 16.5 129.733 16.3 129.186 16.3C128.586 16.3 128.119 16.52 127.786 16.96C127.466 17.4 127.306 18.08 127.306 19C127.306 19.92 127.466 20.6 127.786 21.04C128.119 21.48 128.586 21.7 129.186 21.7ZM146.525 22.06C146.778 22.06 146.985 22.0333 147.145 21.98L146.885 23.88C146.498 24.0933 146.045 24.2 145.525 24.2C144.085 24.2 143.225 23.6867 142.945 22.66C142.345 23.6867 141.158 24.2 139.385 24.2C138.385 24.2 137.618 23.9867 137.085 23.56C136.551 23.1333 136.285 22.5133 136.285 21.7C136.285 20.8467 136.585 20.16 137.185 19.64C137.798 19.1067 138.798 18.7 140.185 18.42L142.445 17.98V17.62C142.445 17.1667 142.318 16.8067 142.065 16.54C141.811 16.2733 141.465 16.14 141.025 16.14C140.518 16.14 140.105 16.26 139.785 16.5C139.465 16.74 139.258 17.1333 139.165 17.68L136.405 16.88C136.578 15.9067 137.058 15.1533 137.845 14.62C138.631 14.0733 139.691 13.8 141.025 13.8C142.585 13.8 143.771 14.12 144.585 14.76C145.398 15.4 145.805 16.36 145.805 17.64V21.28C145.805 21.8 146.045 22.06 146.525 22.06ZM140.625 22C141.091 22 141.511 21.8733 141.885 21.62C142.258 21.3533 142.445 21.0067 142.445 20.58V19.72L140.825 20.1C140.398 20.2067 140.091 20.34 139.905 20.5C139.731 20.6467 139.645 20.86 139.645 21.14C139.645 21.42 139.731 21.6333 139.905 21.78C140.078 21.9267 140.318 22 140.625 22ZM155.355 23.44C155.022 23.6667 154.595 23.8533 154.075 24C153.568 24.1333 153.055 24.2 152.535 24.2C151.348 24.2 150.442 23.9467 149.815 23.44C149.188 22.9333 148.868 22.12 148.855 21V16.42H147.135V14H148.855V11.76L152.255 10.82V14H155.255V16.42H152.255V20.44C152.255 21.3333 152.695 21.78 153.575 21.78C154.122 21.78 154.602 21.6333 155.015 21.34L155.355 23.44ZM158.486 12.84C157.793 12.84 157.286 12.7133 156.966 12.46C156.66 12.1933 156.506 11.78 156.506 11.22C156.506 10.6467 156.66 10.2333 156.966 9.98C157.286 9.71333 157.793 9.58 158.486 9.58C159.18 9.58 159.68 9.71333 159.986 9.98C160.306 10.2333 160.466 10.6467 160.466 11.22C160.466 11.78 160.306 12.1933 159.986 12.46C159.68 12.7133 159.18 12.84 158.486 12.84ZM160.186 24H156.786V14H160.186V24ZM167.407 13.8C169.073 13.8 170.367 14.26 171.287 15.18C172.22 16.0867 172.687 17.36 172.687 19C172.687 20.64 172.22 21.92 171.287 22.84C170.367 23.7467 169.073 24.2 167.407 24.2C165.74 24.2 164.44 23.7467 163.507 22.84C162.587 21.92 162.127 20.64 162.127 19C162.127 17.36 162.587 16.0867 163.507 15.18C164.44 14.26 165.74 13.8 167.407 13.8ZM167.407 16.22C166.767 16.22 166.293 16.44 165.987 16.88C165.68 17.32 165.527 18.0267 165.527 19C165.527 19.9733 165.68 20.68 165.987 21.12C166.293 21.56 166.767 21.78 167.407 21.78C168.047 21.78 168.52 21.56 168.827 21.12C169.133 20.68 169.287 19.9733 169.287 19C169.287 18.0267 169.133 17.32 168.827 16.88C168.52 16.44 168.047 16.22 167.407 16.22ZM181.198 13.8C182.251 13.8 183.091 14.1067 183.718 14.72C184.345 15.3333 184.658 16.2067 184.658 17.34V24H181.258V18.28C181.258 17.6 181.131 17.12 180.878 16.84C180.638 16.5467 180.291 16.4 179.838 16.4C179.305 16.4 178.871 16.5933 178.538 16.98C178.205 17.3533 178.038 17.9333 178.038 18.72V24H174.638V14H177.678L177.778 15.92C178.098 15.2133 178.551 14.6867 179.138 14.34C179.725 13.98 180.411 13.8 181.198 13.8Z" fill="#2B292D"/>
<path d="M80.76 36.94C82.884 36.94 84.414 37.78 85.35 39.46L84.108 40.468C83.748 39.676 83.316 39.118 82.812 38.794C82.32 38.458 81.642 38.29 80.778 38.29C79.866 38.29 79.146 38.482 78.618 38.866C78.102 39.238 77.844 39.718 77.844 40.306C77.844 40.69 77.946 41.008 78.15 41.26C78.354 41.512 78.69 41.734 79.158 41.926C79.638 42.106 80.298 42.268 81.138 42.412C82.71 42.676 83.82 43.072 84.468 43.6C85.128 44.128 85.458 44.86 85.458 45.796C85.458 46.468 85.266 47.062 84.882 47.578C84.51 48.082 83.976 48.478 83.28 48.766C82.584 49.042 81.78 49.18 80.868 49.18C79.668 49.18 78.642 48.946 77.79 48.478C76.95 48.01 76.308 47.386 75.864 46.606L77.106 45.598C77.43 46.306 77.904 46.858 78.528 47.254C79.164 47.638 79.956 47.83 80.904 47.83C81.84 47.83 82.584 47.662 83.136 47.326C83.688 46.978 83.964 46.492 83.964 45.868C83.964 45.34 83.724 44.92 83.244 44.608C82.764 44.296 81.912 44.032 80.688 43.816C79.104 43.54 77.982 43.144 77.322 42.628C76.662 42.112 76.332 41.392 76.332 40.468C76.332 39.832 76.512 39.244 76.872 38.704C77.232 38.164 77.748 37.738 78.42 37.426C79.092 37.102 79.872 36.94 80.76 36.94ZM93.7133 48.37C93.1133 48.91 92.3393 49.18 91.3913 49.18C90.6593 49.18 90.0593 48.982 89.5913 48.586C89.1353 48.19 88.9013 47.584 88.8893 46.768V41.242H87.0893V40H88.8893V37.84L90.3293 37.444V40H93.6593V41.242H90.3293V46.516C90.3293 46.948 90.4493 47.278 90.6893 47.506C90.9413 47.722 91.2713 47.83 91.6793 47.83C92.2553 47.83 92.7653 47.608 93.2093 47.164L93.7133 48.37ZM103.126 47.956C103.366 47.956 103.606 47.926 103.846 47.866L103.756 49C103.42 49.12 103.06 49.18 102.676 49.18C102.208 49.18 101.836 49.078 101.56 48.874C101.296 48.67 101.128 48.328 101.056 47.848C100.78 48.268 100.372 48.598 99.8323 48.838C99.3043 49.066 98.7463 49.18 98.1583 49.18C97.2703 49.18 96.5383 48.976 95.9623 48.568C95.3863 48.148 95.0983 47.548 95.0983 46.768C95.0983 46.084 95.3983 45.496 95.9983 45.004C96.5983 44.5 97.4683 44.152 98.6083 43.96L101.002 43.564V43.06C101.002 42.46 100.816 41.98 100.444 41.62C100.072 41.26 99.5563 41.08 98.8963 41.08C98.2963 41.08 97.7743 41.224 97.3303 41.512C96.8983 41.8 96.5623 42.226 96.3223 42.79L95.2603 42.016C95.5003 41.344 95.9443 40.81 96.5923 40.414C97.2523 40.018 98.0203 39.82 98.8963 39.82C99.9643 39.82 100.822 40.078 101.47 40.594C102.118 41.11 102.442 41.872 102.442 42.88V47.308C102.442 47.524 102.496 47.686 102.604 47.794C102.712 47.902 102.886 47.956 103.126 47.956ZM98.2303 47.92C98.9863 47.92 99.6343 47.74 100.174 47.38C100.726 47.02 101.002 46.552 101.002 45.976V44.734L98.9863 45.112C98.1823 45.256 97.5823 45.466 97.1863 45.742C96.7903 46.006 96.5923 46.348 96.5923 46.768C96.5923 47.14 96.7363 47.428 97.0243 47.632C97.3123 47.824 97.7143 47.92 98.2303 47.92ZM110.19 39.82C110.622 39.82 110.952 39.88 111.18 40L110.892 41.404C110.604 41.248 110.226 41.17 109.758 41.17C109.374 41.17 108.996 41.284 108.624 41.512C108.264 41.728 107.964 42.064 107.724 42.52C107.496 42.964 107.382 43.504 107.382 44.14V49H105.942V40H107.112L107.31 41.476C107.814 40.372 108.774 39.82 110.19 39.82ZM118.252 48.37C117.652 48.91 116.878 49.18 115.93 49.18C115.198 49.18 114.598 48.982 114.13 48.586C113.674 48.19 113.44 47.584 113.428 46.768V41.242H111.628V40H113.428V37.84L114.868 37.444V40H118.198V41.242H114.868V46.516C114.868 46.948 114.988 47.278 115.228 47.506C115.48 47.722 115.81 47.83 116.218 47.83C116.794 47.83 117.304 47.608 117.748 47.164L118.252 48.37ZM128.079 40V49H126.819L126.729 47.632C126.129 48.664 125.055 49.18 123.507 49.18C122.535 49.18 121.737 48.91 121.113 48.37C120.501 47.83 120.195 47.002 120.195 45.886V40H121.635V45.508C121.635 46.384 121.815 47.008 122.175 47.38C122.535 47.74 123.063 47.92 123.759 47.92C124.587 47.92 125.271 47.668 125.811 47.164C126.363 46.66 126.639 45.904 126.639 44.896V40H128.079ZM135.858 39.82C137.118 39.82 138.114 40.24 138.846 41.08C139.59 41.908 139.962 43.048 139.962 44.5C139.962 45.952 139.59 47.098 138.846 47.938C138.114 48.766 137.118 49.18 135.858 49.18C135.198 49.18 134.604 49.036 134.076 48.748C133.56 48.46 133.158 48.076 132.87 47.596V52.78H131.43V40H132.69L132.78 41.566C133.044 41.038 133.446 40.618 133.986 40.306C134.538 39.982 135.162 39.82 135.858 39.82ZM135.696 47.92C136.572 47.92 137.262 47.614 137.766 47.002C138.27 46.378 138.522 45.544 138.522 44.5C138.522 43.456 138.27 42.628 137.766 42.016C137.262 41.392 136.572 41.08 135.696 41.08C134.832 41.08 134.142 41.38 133.626 41.98C133.122 42.58 132.87 43.384 132.87 44.392V44.608C132.87 45.616 133.122 46.42 133.626 47.02C134.142 47.62 134.832 47.92 135.696 47.92ZM150.271 46.588C150.271 47.044 150.337 47.362 150.469 47.542C150.613 47.71 150.871 47.794 151.243 47.794C151.495 47.794 151.711 47.776 151.891 47.74C152.083 47.704 152.305 47.638 152.557 47.542L152.323 48.928C151.927 49.096 151.483 49.18 150.991 49.18C150.259 49.18 149.713 48.982 149.353 48.586C149.005 48.19 148.831 47.584 148.831 46.768V35.86H150.271V46.588ZM161.784 47.956C162.024 47.956 162.264 47.926 162.504 47.866L162.414 49C162.078 49.12 161.718 49.18 161.334 49.18C160.866 49.18 160.494 49.078 160.218 48.874C159.954 48.67 159.786 48.328 159.714 47.848C159.438 48.268 159.03 48.598 158.49 48.838C157.962 49.066 157.404 49.18 156.816 49.18C155.928 49.18 155.196 48.976 154.62 48.568C154.044 48.148 153.756 47.548 153.756 46.768C153.756 46.084 154.056 45.496 154.656 45.004C155.256 44.5 156.126 44.152 157.266 43.96L159.66 43.564V43.06C159.66 42.46 159.474 41.98 159.102 41.62C158.73 41.26 158.214 41.08 157.554 41.08C156.954 41.08 156.432 41.224 155.988 41.512C155.556 41.8 155.22 42.226 154.98 42.79L153.918 42.016C154.158 41.344 154.602 40.81 155.25 40.414C155.91 40.018 156.678 39.82 157.554 39.82C158.622 39.82 159.48 40.078 160.128 40.594C160.776 41.11 161.1 41.872 161.1 42.88V47.308C161.1 47.524 161.154 47.686 161.262 47.794C161.37 47.902 161.544 47.956 161.784 47.956ZM156.888 47.92C157.644 47.92 158.292 47.74 158.832 47.38C159.384 47.02 159.66 46.552 159.66 45.976V44.734L157.644 45.112C156.84 45.256 156.24 45.466 155.844 45.742C155.448 46.006 155.25 46.348 155.25 46.768C155.25 47.14 155.394 47.428 155.682 47.632C155.97 47.824 156.372 47.92 156.888 47.92ZM168.974 39.82C169.994 39.82 170.834 40.114 171.494 40.702C172.154 41.29 172.484 42.136 172.484 43.24V49H171.044V43.744C171.044 42.808 170.84 42.13 170.432 41.71C170.036 41.29 169.502 41.08 168.83 41.08C168.35 41.08 167.9 41.188 167.48 41.404C167.06 41.608 166.712 41.95 166.436 42.43C166.172 42.898 166.04 43.492 166.04 44.212V49H164.6V40H165.86L165.95 41.404C166.25 40.864 166.664 40.468 167.192 40.216C167.72 39.952 168.314 39.82 168.974 39.82ZM183.736 35.86V49H182.476L182.386 47.434C182.122 47.962 181.714 48.388 181.162 48.712C180.622 49.024 180.004 49.18 179.308 49.18C178.048 49.18 177.046 48.766 176.302 47.938C175.57 47.098 175.204 45.952 175.204 44.5C175.204 43.048 175.57 41.908 176.302 41.08C177.046 40.24 178.048 39.82 179.308 39.82C179.968 39.82 180.556 39.964 181.072 40.252C181.6 40.54 182.008 40.924 182.296 41.404V35.86H183.736ZM179.47 47.92C180.334 47.92 181.018 47.62 181.522 47.02C182.038 46.42 182.296 45.616 182.296 44.608V44.392C182.296 43.384 182.038 42.58 181.522 41.98C181.018 41.38 180.334 41.08 179.47 41.08C178.594 41.08 177.904 41.392 177.4 42.016C176.896 42.628 176.644 43.456 176.644 44.5C176.644 45.544 176.896 46.378 177.4 47.002C177.904 47.614 178.594 47.92 179.47 47.92ZM187.802 38.272C187.478 38.272 187.214 38.176 187.01 37.984C186.818 37.78 186.722 37.516 186.722 37.192C186.722 36.868 186.818 36.61 187.01 36.418C187.214 36.214 187.478 36.112 187.802 36.112C188.126 36.112 188.384 36.214 188.576 36.418C188.78 36.61 188.882 36.868 188.882 37.192C188.882 37.516 188.78 37.78 188.576 37.984C188.384 38.176 188.126 38.272 187.802 38.272ZM188.522 49H187.082V40H188.522V49ZM196.237 39.82C197.257 39.82 198.097 40.114 198.757 40.702C199.417 41.29 199.747 42.136 199.747 43.24V49H198.307V43.744C198.307 42.808 198.103 42.13 197.695 41.71C197.299 41.29 196.765 41.08 196.093 41.08C195.613 41.08 195.163 41.188 194.743 41.404C194.323 41.608 193.975 41.95 193.699 42.43C193.435 42.898 193.303 43.492 193.303 44.212V49H191.863V40H193.123L193.213 41.404C193.513 40.864 193.927 40.468 194.455 40.216C194.983 39.952 195.577 39.82 196.237 39.82ZM208.03 47.848C208.882 47.848 209.548 48.04 210.028 48.424C210.508 48.808 210.748 49.33 210.748 49.99C210.748 50.566 210.55 51.07 210.154 51.502C209.758 51.946 209.218 52.282 208.534 52.51C207.862 52.75 207.118 52.87 206.302 52.87C204.934 52.87 203.902 52.648 203.206 52.204C202.51 51.772 202.162 51.202 202.162 50.494C202.162 50.086 202.3 49.726 202.576 49.414C202.864 49.102 203.254 48.88 203.746 48.748C203.374 48.568 203.074 48.34 202.846 48.064C202.63 47.788 202.522 47.464 202.522 47.092C202.522 46.648 202.642 46.282 202.882 45.994C203.122 45.694 203.452 45.472 203.872 45.328C203.44 45.064 203.11 44.722 202.882 44.302C202.666 43.87 202.558 43.39 202.558 42.862C202.558 42.274 202.714 41.752 203.026 41.296C203.338 40.828 203.776 40.468 204.34 40.216C204.904 39.952 205.54 39.82 206.248 39.82C206.92 39.82 207.532 39.94 208.084 40.18C208.42 38.956 209.266 38.344 210.622 38.344L210.946 39.604C209.77 39.604 209.056 39.934 208.804 40.594C209.164 40.87 209.44 41.2 209.632 41.584C209.836 41.968 209.938 42.394 209.938 42.862C209.938 43.45 209.782 43.978 209.47 44.446C209.158 44.902 208.72 45.262 208.156 45.526C207.592 45.778 206.956 45.904 206.248 45.904C205.72 45.904 205.258 45.85 204.862 45.742C204.502 45.826 204.244 45.958 204.088 46.138C203.932 46.318 203.854 46.564 203.854 46.876C203.854 47.188 203.962 47.428 204.178 47.596C204.394 47.764 204.682 47.848 205.042 47.848H208.03ZM206.248 40.99C205.624 40.99 205.102 41.164 204.682 41.512C204.262 41.86 204.052 42.31 204.052 42.862C204.052 43.414 204.262 43.864 204.682 44.212C205.102 44.56 205.624 44.734 206.248 44.734C206.872 44.734 207.394 44.56 207.814 44.212C208.234 43.864 208.444 43.414 208.444 42.862C208.444 42.31 208.234 41.86 207.814 41.512C207.394 41.164 206.872 40.99 206.248 40.99ZM206.464 51.664C207.376 51.664 208.096 51.514 208.624 51.214C209.152 50.926 209.416 50.572 209.416 50.152C209.416 49.804 209.278 49.54 209.002 49.36C208.738 49.18 208.282 49.09 207.634 49.09H205.222C204.67 49.09 204.244 49.186 203.944 49.378C203.644 49.582 203.494 49.858 203.494 50.206C203.494 50.662 203.746 51.016 204.25 51.268C204.754 51.532 205.492 51.664 206.464 51.664ZM224.178 48.37C223.578 48.91 222.804 49.18 221.856 49.18C221.124 49.18 220.524 48.982 220.056 48.586C219.6 48.19 219.366 47.584 219.354 46.768V41.242H217.554V40H219.354V37.84L220.794 37.444V40H224.124V41.242H220.794V46.516C220.794 46.948 220.914 47.278 221.154 47.506C221.406 47.722 221.736 47.83 222.144 47.83C222.72 47.83 223.23 47.608 223.674 47.164L224.178 48.37ZM233.933 44.032C233.933 44.368 233.909 44.704 233.861 45.04H227.075C227.159 45.952 227.459 46.66 227.975 47.164C228.503 47.668 229.181 47.92 230.009 47.92C230.669 47.92 231.215 47.806 231.647 47.578C232.091 47.35 232.391 47.02 232.547 46.588L233.753 47.218C233.393 47.854 232.913 48.34 232.313 48.676C231.713 49.012 230.945 49.18 230.009 49.18C228.653 49.18 227.585 48.766 226.805 47.938C226.037 47.11 225.653 45.964 225.653 44.5C225.653 43.036 226.019 41.89 226.751 41.062C227.495 40.234 228.545 39.82 229.901 39.82C230.741 39.82 231.467 40.006 232.079 40.378C232.691 40.75 233.153 41.254 233.465 41.89C233.777 42.526 233.933 43.24 233.933 44.032ZM229.901 41.08C229.109 41.08 228.467 41.314 227.975 41.782C227.495 42.25 227.201 42.91 227.093 43.762H232.547C232.451 42.922 232.175 42.268 231.719 41.8C231.263 41.32 230.657 41.08 229.901 41.08ZM247.128 39.82C247.728 39.82 248.286 39.946 248.802 40.198C249.33 40.438 249.756 40.816 250.08 41.332C250.404 41.848 250.566 42.484 250.566 43.24V49H249.126V43.384C249.126 42.604 248.928 42.028 248.532 41.656C248.148 41.272 247.638 41.08 247.002 41.08C246.522 41.08 246.078 41.2 245.67 41.44C245.274 41.668 244.95 42.01 244.698 42.466C244.458 42.91 244.338 43.444 244.338 44.068V49H242.898V43.384C242.898 42.604 242.7 42.028 242.304 41.656C241.92 41.272 241.41 41.08 240.774 41.08C240.342 41.08 239.922 41.194 239.514 41.422C239.106 41.638 238.77 41.98 238.506 42.448C238.242 42.916 238.11 43.498 238.11 44.194V49H236.67V40H237.93L238.02 41.404C238.332 40.876 238.74 40.48 239.244 40.216C239.76 39.952 240.312 39.82 240.9 39.82C241.56 39.82 242.166 39.97 242.718 40.27C243.282 40.57 243.708 41.008 243.996 41.584C244.26 41.008 244.692 40.57 245.292 40.27C245.892 39.97 246.504 39.82 247.128 39.82ZM258.254 39.82C259.514 39.82 260.51 40.24 261.242 41.08C261.986 41.908 262.358 43.048 262.358 44.5C262.358 45.952 261.986 47.098 261.242 47.938C260.51 48.766 259.514 49.18 258.254 49.18C257.594 49.18 257 49.036 256.472 48.748C255.956 48.46 255.554 48.076 255.266 47.596V52.78H253.826V40H255.086L255.176 41.566C255.44 41.038 255.842 40.618 256.382 40.306C256.934 39.982 257.558 39.82 258.254 39.82ZM258.092 47.92C258.968 47.92 259.658 47.614 260.162 47.002C260.666 46.378 260.918 45.544 260.918 44.5C260.918 43.456 260.666 42.628 260.162 42.016C259.658 41.392 258.968 41.08 258.092 41.08C257.228 41.08 256.538 41.38 256.022 41.98C255.518 42.58 255.266 43.384 255.266 44.392V44.608C255.266 45.616 255.518 46.42 256.022 47.02C256.538 47.62 257.228 47.92 258.092 47.92ZM266.532 46.588C266.532 47.044 266.598 47.362 266.73 47.542C266.874 47.71 267.132 47.794 267.504 47.794C267.756 47.794 267.972 47.776 268.152 47.74C268.344 47.704 268.566 47.638 268.818 47.542L268.584 48.928C268.188 49.096 267.744 49.18 267.252 49.18C266.52 49.18 265.974 48.982 265.614 48.586C265.266 48.19 265.092 47.584 265.092 46.768V35.86H266.532V46.588ZM278.046 47.956C278.286 47.956 278.526 47.926 278.766 47.866L278.676 49C278.34 49.12 277.98 49.18 277.596 49.18C277.128 49.18 276.756 49.078 276.48 48.874C276.216 48.67 276.048 48.328 275.976 47.848C275.7 48.268 275.292 48.598 274.752 48.838C274.224 49.066 273.666 49.18 273.078 49.18C272.19 49.18 271.458 48.976 270.882 48.568C270.306 48.148 270.018 47.548 270.018 46.768C270.018 46.084 270.318 45.496 270.918 45.004C271.518 44.5 272.388 44.152 273.528 43.96L275.922 43.564V43.06C275.922 42.46 275.736 41.98 275.364 41.62C274.992 41.26 274.476 41.08 273.816 41.08C273.216 41.08 272.694 41.224 272.25 41.512C271.818 41.8 271.482 42.226 271.242 42.79L270.18 42.016C270.42 41.344 270.864 40.81 271.512 40.414C272.172 40.018 272.94 39.82 273.816 39.82C274.884 39.82 275.742 40.078 276.39 40.594C277.038 41.11 277.362 41.872 277.362 42.88V47.308C277.362 47.524 277.416 47.686 277.524 47.794C277.632 47.902 277.806 47.956 278.046 47.956ZM273.15 47.92C273.906 47.92 274.554 47.74 275.094 47.38C275.646 47.02 275.922 46.552 275.922 45.976V44.734L273.906 45.112C273.102 45.256 272.502 45.466 272.106 45.742C271.71 46.006 271.512 46.348 271.512 46.768C271.512 47.14 271.656 47.428 271.944 47.632C272.232 47.824 272.634 47.92 273.15 47.92ZM286.018 48.37C285.418 48.91 284.644 49.18 283.696 49.18C282.964 49.18 282.364 48.982 281.896 48.586C281.44 48.19 281.206 47.584 281.194 46.768V41.242H279.394V40H281.194V37.84L282.634 37.444V40H285.964V41.242H282.634V46.516C282.634 46.948 282.754 47.278 282.994 47.506C283.246 47.722 283.576 47.83 283.984 47.83C284.56 47.83 285.07 47.608 285.514 47.164L286.018 48.37ZM295.773 44.032C295.773 44.368 295.749 44.704 295.701 45.04H288.915C288.999 45.952 289.299 46.66 289.815 47.164C290.343 47.668 291.021 47.92 291.849 47.92C292.509 47.92 293.055 47.806 293.487 47.578C293.931 47.35 294.231 47.02 294.387 46.588L295.593 47.218C295.233 47.854 294.753 48.34 294.153 48.676C293.553 49.012 292.785 49.18 291.849 49.18C290.493 49.18 289.425 48.766 288.645 47.938C287.877 47.11 287.493 45.964 287.493 44.5C287.493 43.036 287.859 41.89 288.591 41.062C289.335 40.234 290.385 39.82 291.741 39.82C292.581 39.82 293.307 40.006 293.919 40.378C294.531 40.75 294.993 41.254 295.305 41.89C295.617 42.526 295.773 43.24 295.773 44.032ZM291.741 41.08C290.949 41.08 290.307 41.314 289.815 41.782C289.335 42.25 289.041 42.91 288.933 43.762H294.387C294.291 42.922 294.015 42.268 293.559 41.8C293.103 41.32 292.497 41.08 291.741 41.08Z" fill="#2B292D" fill-opacity="0.6"/>
<g filter="url(#filter0_dd)">
<rect width="60" height="60" rx="14" fill="url(#paint0_linear)"/>
</g>
<path fill-rule="evenodd" clip-rule="evenodd" d="M45.7308 23.2732H15.2692C14.5683 23.2732 14 22.7072 14 22.0091V11.2641C14 10.566 14.5683 10 15.2692 10H20.9808C21.6817 10 22.25 10.566 22.25 11.2641V15.0565H25.4231V11.2641C25.4231 10.566 25.9913 10 26.6923 10H34.3077C35.0087 10 35.5769 10.566 35.5769 11.2641V15.0565H38.75V11.2641C38.75 10.566 39.3183 10 40.0192 10H45.7308C46.4317 10 47 10.566 47 11.2641V22.0091C47 22.7072 46.4317 23.2732 45.7308 23.2732ZM17.8077 27.0655V25.8014C17.8077 25.4568 18.0943 25.1694 18.4479 25.1694H42.5521C42.9072 25.1694 43.1923 25.4523 43.1923 25.8014V27.0655C40.918 27.0659 38.8765 28.0591 37.481 29.6335C36.0854 28.0586 34.0432 27.0655 31.7678 27.0655H29.2322C26.9575 27.0655 24.9156 28.0585 23.5199 29.633C22.1242 28.0585 20.0823 27.0655 17.8077 27.0655ZM43.8283 28.9617C41.1791 28.9617 38.8456 30.3087 37.481 32.3524C36.1165 30.3085 33.783 28.9617 31.1332 28.9617H29.8668C27.2179 28.9617 24.8846 30.3084 23.5199 32.3517C22.1552 30.3084 19.822 28.9617 17.1731 28.9617C16.4721 28.9617 15.9038 29.5277 15.9038 30.2258V49.1875C15.9038 49.8857 16.4721 50.4516 17.1731 50.4516H23.5206L23.521 50.4516C24.2211 50.4507 24.7885 49.8851 24.7885 49.1875V36.5464C24.7885 33.7539 27.0622 31.4899 29.8668 31.4899H31.1332C33.9385 31.4899 36.2115 33.753 36.2115 36.5464V49.1875C36.2115 49.8857 36.7798 50.4516 37.4808 50.4516H43.8283C44.5293 50.4516 45.0975 49.8857 45.0975 49.1875V30.2258C45.0975 29.5277 44.5293 28.9617 43.8283 28.9617ZM38.75 44.0746L42.4131 41.237C42.4601 41.2006 42.5089 41.168 42.5591 41.1391V38.0064L38.75 40.9571V44.0746ZM42.4131 34.9165L38.75 37.7542V36.5464C38.75 34.6904 39.7544 33.0679 41.2515 32.1884C42.0069 31.7446 42.5591 31.6163 42.5591 31.6163V34.8187C42.5089 34.8475 42.4601 34.8801 42.4131 34.9165ZM38.75 47.2775V47.9234H42.5591V44.3269L38.75 47.2775ZM18.5869 41.237C18.5403 41.201 18.492 41.1686 18.4423 41.1399V38.0074L22.2514 40.9581V44.0757L18.5869 41.237ZM18.4423 34.8194C18.492 34.8481 18.5404 34.8804 18.587 34.9165L22.2514 37.7551V36.5464C22.2514 34.1861 20.627 32.2034 18.4423 31.6462V34.8194ZM18.4423 47.9234V44.3279L22.2514 47.2786V47.9234H18.4423Z" fill="white"/>
</g>
<defs>
<filter id="filter0_dd" x="-6" y="-2" width="72" height="72" filterUnits="userSpaceOnUse" color-interpolation-filters="sRGB">
<feFlood flood-opacity="0" result="BackgroundImageFix"/>
<feColorMatrix in="SourceAlpha" type="matrix" values="0 0 0 0 0 0 0 0 0 0 0 0 0 0 0 0 0 0 127 0"/>
<feOffset dy="4"/>
<feGaussianBlur stdDeviation="3"/>
<feColorMatrix type="matrix" values="0 0 0 0 0 0 0 0 0 0 0 0 0 0 0 0 0 0 0.05 0"/>
<feBlend mode="normal" in2="BackgroundImageFix" result="effect1_dropShadow"/>
<feColorMatrix in="SourceAlpha" type="matrix" values="0 0 0 0 0 0 0 0 0 0 0 0 0 0 0 0 0 0 127 0"/>
<feOffset dy="1"/>
<feGaussianBlur stdDeviation="1.5"/>
<feColorMatrix type="matrix" values="0 0 0 0 0 0 0 0 0 0 0 0 0 0 0 0 0 0 0.1 0"/>
<feBlend mode="normal" in2="effect1_dropShadow" result="effect2_dropShadow"/>
<feBlend mode="normal" in="SourceGraphic" in2="effect2_dropShadow" result="shape"/>
</filter>
<linearGradient id="paint0_linear" x1="-24.875" y1="27.4375" x2="30" y2="87.4375" gradientUnits="userSpaceOnUse">
<stop stop-color="#3142C6"/>
<stop offset="1" stop-color="#AF61D1"/>
</linearGradient>
<clipPath id="clip0">
<rect width="299" height="60" fill="white"/>
</clipPath>
</defs>
</svg>
